<?xml version="1.0"?>
<svg xmlns="http://www.w3.org/2000/svg" viewBox="0 0 512 512" width="45px" height="45px"><g><g id="Cannabis_Bong" data-name="Cannabis Bong"><g id="Outline"><path d="M319.464,185.711c-7.045,1.143-5.894,6.682-23.538,39.646l-3.465-3.464a8,8,0,1,0-11.315,11.313l5.657,5.657L275.49,250.176l-5.656-5.656a8,8,0,0,0-11.314,11.313l5.656,5.657-16.549,16.55a112.12,112.12,0,0,0-73.561-21.831l-29.9-114.234a8,8,0,0,0-15.479,4.05l29.4,112.324a111.847,111.847,0,0,0-29.995,10.889,8,8,0,0,0,7.546,14.109,95.951,95.951,0,0,1,107.421,11.488A8,8,0,0,0,253.9,294.4L275.49,272.8,286.8,284.118l-23.255,23.255a8,8,0,0,0-1.13,9.891C297.655,373.738,268.816,464,176,464a8,8,0,0,0,0,16c13.775,0,32.381-2.559,48-8.12V496H144V460.837a8,8,0,0,0-4.386-7.137c-53.532-27.1-71.625-92.694-36.924-141.364,4.128-5.788,2.989,4.406-60.685-245.375l62.166-14.618,8.09,30.91A8,8,0,1,0,127.739,79.2l-7.988-30.523,7.405-1.741a8,8,0,1,0-3.662-15.575L115.7,33.2l-4.053-15.484,8.185-1.924A8,8,0,0,0,116.169.212l-110,25.866c-9.182,2.159-7.65,15.79,1.824,15.79,1.587,0,1.92-.3,10.4-2.227l4.018,15.492-8.913,2.1A8,8,0,1,0,17.156,72.8l9.269-2.18L87.517,306.167C50.494,361.936,71.135,433.766,128,465.636V496H116.913a8,8,0,0,0,0,16h128a8,8,0,0,0,0-16H240V464.365c51.972-31.023,66.926-99.389,39.226-150.042l18.892-18.891c4.508,3.892,6.229,8,11.314,8a8.009,8.009,0,0,0,5.657-13.657l-5.657-5.657L320.745,272.8c4.508,3.893,6.229,8,11.314,8a8.009,8.009,0,0,0,5.657-13.657l-3.466-3.465,35.328-17.664a8,8,0,0,0,2.079-12.812C325.568,188.743,326.653,184.551,319.464,185.711ZM33.969,35.978l62.1-14.6,4.053,15.483L37.987,51.469ZM298.118,272.8,286.8,261.49l11.313-11.313,11.314,11.313Zm24.207-21.048-14.474-14.473,15.086-30.17L352.5,236.671Z" data-original="#000000" class="active-path" data-old_color="#000000" fill="#FFFFFF"/><path d="M248,336a8,8,0,0,0-8-8,51.534,51.534,0,0,0-33.568,12.034,158.069,158.069,0,0,0-15.307-47.671,8.005,8.005,0,0,0-14.25,0,158.069,158.069,0,0,0-15.307,47.671A51.534,51.534,0,0,0,128,328a8,8,0,0,0-8,8c0,26.78,12.011,41.424,21.646,48.863a49.264,49.264,0,0,0-14.6,30.262A8,8,0,0,0,135,424c18.638,0,32.032-5.117,41-10.523V440a8,8,0,0,0,16,0V413.477C200.968,418.883,214.362,424,233,424a8,8,0,0,0,7.952-8.875,49.264,49.264,0,0,0-14.6-30.262C235.989,377.424,248,362.78,248,336Zm-25.362,71.334c-22.357-2.979-31.654-14.966-32.168-15.652a8,8,0,0,0-12.982.057c-.1.142-9.578,12.513-32.119,15.579A33.082,33.082,0,0,1,159.5,391.193a7.984,7.984,0,0,0-.867-14.747c-.831-.3-18.453-6.934-22.011-31.465,16.453,3.876,23.884,17.941,24.222,18.6a8.006,8.006,0,0,0,9.129,4.175c11.307-2.878.717-14.044,14.02-51.524,8.485,23.983,8.018,43.27,8.011,43.492-.3,8.457,11.214,11.506,15.13,3.9.355-.69,7.789-14.76,24.242-18.637-3.557,24.531-21.173,31.164-21.941,31.441a8.01,8.01,0,0,0-5.448,7.058C203.385,392.957,215.553,390.177,222.638,407.334Z" data-original="#000000" class="active-path" data-old_color="#000000" fill="#FFFFFF"/><path d="M480,144H272a16,16,0,0,1,0-32H432a32,32,0,0,0,0-64H352a16,16,0,0,1,0-32h88a8,8,0,0,0,0-16H304a32,32,0,0,0,0,64h80a16,16,0,0,1,0,32H224a32,32,0,0,0,0,64H432a16,16,0,0,1,0,32H408a8,8,0,0,0,0,16h72a32,32,0,0,0,0-64ZM324.305,48H304a16,16,0,0,1,0-32h20.305A31.885,31.885,0,0,0,324.305,48ZM411.7,64H432a16,16,0,0,1,0,32H411.7A31.885,31.885,0,0,0,411.7,64Zm-167.39,80H224a16,16,0,0,1,0-32h20.305A31.885,31.885,0,0,0,244.305,144ZM480,192H459.7a31.885,31.885,0,0,0,0-32H480a16,16,0,0,1,0,32Z" data-original="#000000" class="active-path" data-old_color="#000000" fill="#FFFFFF"/><circle cx="376" cy="200" r="8" data-original="#000000" class="active-path" data-old_color="#000000" fill="#FFFFFF"/><circle cx="128" cy="112" r="8" data-original="#000000" class="active-path" data-old_color="#000000" fill="#FFFFFF"/><circle cx="504" cy="8" r="8" data-original="#000000" class="active-path" data-old_color="#000000" fill="#FFFFFF"/><circle cx="472" cy="8" r="8" data-original="#000000" class="active-path" data-old_color="#000000" fill="#FFFFFF"/></g></g></g> </svg>
