<?xml version="1.0"?>
<svg xmlns="http://www.w3.org/2000/svg" xmlns:xlink="http://www.w3.org/1999/xlink" version="1.1" id="Capa_1" x="0px" y="0px" viewBox="0 0 512 512" style="enable-background:new 0 0 512 512;" xml:space="preserve" width="40px" height="40px"><g><g>
	<g>
		<g>
			<path d="M362.667,88.615V64h10.667C379.229,64,384,59.229,384,53.333V10.667C384,4.771,379.229,0,373.333,0H138.667     C132.771,0,128,4.771,128,10.667v42.667C128,59.229,132.771,64,138.667,64h10.667v24.615c-38.583,16.125-64,53.844-64,96.177     v284.542C85.333,492.865,104.469,512,128,512h256c23.531,0,42.667-19.135,42.667-42.667V184.792     C426.667,142.458,401.25,104.74,362.667,88.615z M149.333,21.333h213.333v21.333H149.333V21.333z M405.333,469.333     c0,11.76-9.573,21.333-21.333,21.333H128c-11.76,0-21.333-9.573-21.333-21.333V184.792c0-35.75,22.792-67.365,56.708-78.677     c4.354-1.448,7.292-5.521,7.292-10.115V64h170.667v32c0,4.594,2.938,8.667,7.292,10.115     c33.917,11.313,56.708,42.927,56.708,78.677V469.333z" data-original="#000000" class="active-path" data-old_color="#000000" fill="#89D32A"/>
			<path d="M138.667,195.458c5.896,0,10.667-4.771,10.667-10.667c0-17.354,11.063-32.708,27.521-38.198     c5.583-1.854,8.604-7.896,6.74-13.49c-1.854-5.594-7.833-8.635-13.49-6.74C144.917,134.75,128,158.24,128,184.792     C128,190.688,132.771,195.458,138.667,195.458z" data-original="#000000" class="active-path" data-old_color="#000000" fill="#89D32A"/>
			<path d="M312.427,299.156c-5.553,3.893-10.852,8.264-15.997,12.773c1.303-7.51,2.237-15.376,2.237-23.93     c0-55.323-32.135-109.833-33.51-112.135c-3.833-6.438-14.479-6.438-18.313,0c-1.375,2.302-33.51,56.813-33.51,112.135     c0,8.553,0.934,16.419,2.237,23.93c-5.146-4.508-10.444-8.882-15.997-12.773c-37.115-26-71.552-21.615-73.031-21.417     c-3.385,0.458-6.344,2.531-7.958,5.552c-1.604,3.021-1.667,6.625-0.167,9.698c0.99,2.021,24.646,49.688,62.302,71.521     c3.164,1.835,6.406,3.354,9.643,4.859c-2.021,0.569-4.087,1.046-6.049,1.714c-33.438,11.365-44.385,36.958-44.833,38.042     c-1.219,2.927-1.063,6.25,0.417,9.063c1.49,2.813,4.146,4.813,7.25,5.458c1,0.208,14.698,3.01,31.885,3.01     c13.427,0,28.99-1.708,42.26-7.719c9.471-4.28,17.47-10.273,24.042-16.309v34.704c0,5.896,4.771,10.667,10.667,10.667     s10.667-4.771,10.667-10.667v-34.704c6.572,6.035,14.57,12.029,24.042,16.309c13.271,6.01,28.823,7.719,42.26,7.719     c17.177,0,30.885-2.802,31.885-3.01c3.104-0.646,5.76-2.646,7.25-5.458c1.479-2.813,1.635-6.135,0.417-9.063     c-0.448-1.083-11.396-26.677-44.833-38.052c-1.958-0.665-4.022-1.141-6.04-1.707c3.233-1.505,6.473-3.022,9.634-4.855     c37.656-21.833,61.313-69.5,62.302-71.521c1.5-3.073,1.438-6.677-0.167-9.698c-1.615-3.021-4.573-5.094-7.958-5.552     C384.021,277.583,349.563,273.156,312.427,299.156z M146.958,299.729c10.656,1.771,25.115,6.208,40.365,16.906     c17.75,12.438,34.104,30.198,45.229,43.646c-12.24-2.167-27.479-6.313-41.125-14.229     C171.917,334.74,156.25,314.167,146.958,299.729z M212.5,399.5c-13.51,6.135-31.229,6.385-44.073,5.427     c5.01-4.865,12.354-10.115,22.76-13.646c13.625-4.635,29.844-6.396,42.573-6.99C228.177,389.865,220.979,395.667,212.5,399.5z      M258.057,352.786c-0.759,0.962-1.371,1.766-2.057,2.654c-0.799-1.033-1.497-1.957-2.395-3.089     c-8.379-13.07-18.939-35.016-18.939-64.352c0-31.573,12.354-63.969,21.344-83.333C264.99,224,277.333,256.344,277.333,288     C277.333,317.473,266.484,339.701,258.057,352.786z M343.573,404.927c-12.802,0.958-30.542,0.708-44.073-5.427     c-8.479-3.833-15.677-9.635-21.26-15.208c12.729,0.594,28.948,2.354,42.573,6.99     C331.219,394.813,338.573,400.063,343.573,404.927z M320.573,346.052c-13.646,7.917-28.896,12.063-41.135,14.229     c11.104-13.438,27.448-31.188,45.24-43.646c15.271-10.708,29.74-15.146,40.396-16.906     C355.802,314.146,340.156,334.698,320.573,346.052z" data-original="#000000" class="active-path" data-old_color="#000000" fill="#89D32A"/>
		</g>
	</g>
</g></g> </svg>
